<?xml version="1.0" standalone="no"?>
<!DOCTYPE svg PUBLIC "-//W3C//DTD SVG 20010904//EN"
 "http://www.w3.org/TR/2001/REC-SVG-20010904/DTD/svg10.dtd">
<svg version="1.0" xmlns="http://www.w3.org/2000/svg"
 width="420.000000pt" height="105.000000pt" viewBox="0 0 420.000000 105.000000"
 preserveAspectRatio="xMidYMid meet">

<g transform="translate(0.000000,105.000000) scale(0.100000,-0.100000)"
fill="#000000" stroke="none">
<path d="M1741 909 c-64 -64 -26 -159 64 -159 56 0 90 34 90 92 0 34 -6 45
-35 69 -45 38 -80 37 -119 -2z"/>
<path d="M2785 811 c-101 -25 -192 -105 -246 -217 -36 -74 -41 -92 -42 -161
-1 -48 4 -88 12 -103 57 -107 191 -139 313 -76 32 17 54 23 56 17 8 -25 35
-41 66 -41 40 0 49 10 66 75 7 28 20 79 30 115 10 36 21 80 25 98 l7 33 -114
-3 -113 -3 -16 -50 c-19 -58 -17 -65 17 -65 32 0 31 -23 -2 -49 -19 -15 -41
-21 -80 -21 -45 0 -55 4 -74 27 -19 24 -21 37 -18 93 8 105 64 189 138 205 40
9 84 -10 98 -41 11 -22 17 -24 86 -24 41 0 78 5 81 10 15 24 -17 109 -51 139
-52 46 -150 63 -239 42z"/>
<path d="M275 798 c-2 -7 -27 -101 -54 -208 -27 -107 -59 -229 -70 -270 -23
-86 -21 -90 54 -90 86 0 90 3 109 83 9 40 20 78 24 84 5 8 44 15 107 19 146 8
213 43 259 136 31 62 35 144 10 188 -34 57 -62 65 -257 68 -141 3 -178 1 -182
-10z m269 -134 c10 -4 16 -18 16 -38 -1 -59 -40 -86 -125 -86 l-57 0 7 48 c11
76 17 82 85 82 32 0 65 -3 74 -6z"/>
<path d="M3242 793 c-5 -10 -12 -33 -15 -50 l-6 -33 74 0 74 0 9 43 c5 23 7
45 5 50 -2 4 -33 7 -68 7 -51 0 -66 -4 -73 -17z"/>
<path d="M3587 795 c-52 -18 -83 -49 -103 -102 -13 -34 -22 -43 -41 -43 -18 0
-28 -9 -39 -35 -16 -40 -12 -55 17 -55 26 0 25 -11 -16 -168 -20 -75 -33 -142
-31 -149 4 -8 24 -13 60 -13 60 0 82 14 92 58 15 67 65 256 70 263 3 5 21 9
39 9 38 0 59 25 53 63 -2 17 -11 23 -35 25 -18 2 -33 7 -33 13 0 18 41 49 65
49 27 0 45 30 45 76 0 22 -3 24 -52 24 -29 -1 -70 -7 -91 -15z"/>
<path d="M3852 768 c-7 -7 -12 -19 -12 -27 0 -9 -5 -33 -11 -53 -8 -30 -15
-38 -33 -38 -29 0 -44 -17 -52 -58 -6 -29 -4 -32 20 -32 32 0 32 -2 1 -120
-46 -179 -34 -210 87 -210 75 0 89 11 101 77 5 27 3 32 -15 35 -39 6 -44 30
-23 115 10 43 23 84 28 91 5 6 25 12 43 12 27 0 34 4 34 19 0 11 5 23 10 26 6
3 10 15 10 26 0 15 -7 19 -36 19 -36 0 -36 1 -30 33 4 17 10 47 13 65 l6 32
-65 0 c-36 0 -69 -5 -76 -12z"/>
<path d="M1860 662 c-44 -35 -20 -102 35 -102 51 0 74 75 33 104 -29 20 -41
20 -68 -2z"/>
<path d="M882 628 c-44 -21 -77 -59 -84 -93 -3 -17 3 -20 48 -23 42 -2 54 1
77 22 35 32 65 40 100 27 64 -25 13 -73 -103 -96 -141 -27 -205 -80 -198 -162
6 -75 104 -101 202 -53 44 21 49 22 58 7 7 -13 24 -17 78 -17 l70 0 0 34 c0
18 14 87 30 152 36 141 34 176 -13 204 -47 29 -204 28 -265 -2z m131 -214 c3
-4 -3 -24 -14 -46 -25 -48 -79 -76 -116 -59 -48 22 -15 91 44 91 12 0 25 5 28
10 7 11 48 14 58 4z"/>
<path d="M3210 641 c-13 -9 -101 -328 -104 -381 -1 -24 2 -25 60 -28 41 -2 64
1 72 10 6 7 31 93 56 191 25 97 48 182 52 188 3 6 0 15 -7 20 -18 12 -110 11
-129 0z"/>
</g>
</svg>
